# xmcd
#
# Track frame offsets:
#	150
#	10337
#	24312
#	38252
#	58632
#	74000
#	85752
#	100207
#	113387
#	122532
#	134727
#	149635
#
# Disc length: 2138 seconds
#
# Revision: 0
# Processed by: cddbd v1.4PL0 Copyright (c) Steve Scherf et al.
# Submitted via: EasyCDDAExtractor 4.6.9.1
#
DISCID=9d08580c
DTITLE=Wildfire - Uncontained
DYEAR=2001
DGENRE=Bluegrass
TTITLE0=Rough Edges
TTITLE1=Don't Let Me Stand In Your Way
TTITLE2=Victim Of Life's Circumstances
TTITLE3=Bartender Blues
TTITLE4=Maria (Love To See You Again)
TTITLE5=Fall On Your Knees
TTITLE6=Louise
TTITLE7=You Can't Cut Me Any Deeper
TTITLE8=Moanin' The Blues
TTITLE9=Straight And Narrow
TTITLE10=It Could Be You
TTITLE11=Don't Let Your Deal Go Down
EXTD=
EXTT0=
EXTT1=
EXTT2=
EXTT3=
EXTT4=
EXTT5=
EXTT6=
EXTT7=
EXTT8=
EXTT9=
EXTT10=
EXTT11=
PLAYORDER=
